<svg display='none' xmlns="http://www.w3.org/2000/svg">
<symbol id='search' viewBox="0 0 40 40" fill="none">
<path d="M18.3333 31.6667C25.6971 31.6667 31.6667 25.6971 31.6667 18.3333C31.6667 10.9695 25.6971 5 18.3333 5C10.9695 5 5 10.9695 5 18.3333C5 25.6971 10.9695 31.6667 18.3333 31.6667Z"  stroke-width="3" stroke-linecap="round" stroke-linejoin="round"/>
<path d="M34.9999 35L27.7499 27.75" stroke-width="3" stroke-linecap="round" stroke-linejoin="round"/>
</symbol>
<symbol id='shopping-cart' viewBox="0 0 40 40" fill="none">
<path d="M15 36.6667C15.9205 36.6667 16.6667 35.9205 16.6667 35C16.6667 34.0795 15.9205 33.3333 15 33.3333C14.0796 33.3333 13.3334 34.0795 13.3334 35C13.3334 35.9205 14.0796 36.6667 15 36.6667Z" stroke-width="3" stroke-linecap="round" stroke-linejoin="round"/>
<path d="M33.3333 36.6667C34.2538 36.6667 35 35.9205 35 35C35 34.0795 34.2538 33.3333 33.3333 33.3333C32.4128 33.3333 31.6666 34.0795 31.6666 35C31.6666 35.9205 32.4128 36.6667 33.3333 36.6667Z" stroke-width="3" stroke-linecap="round" stroke-linejoin="round"/>
<path d="M1.66663 1.66669H8.33329L12.8 23.9834C12.9524 24.7507 13.3698 25.44 13.9792 25.9305C14.5886 26.4211 15.3511 26.6817 16.1333 26.6667H32.3333C33.1155 26.6817 33.878 26.4211 34.4874 25.9305C35.0968 25.44 35.5142 24.7507 35.6666 23.9834L38.3333 10H9.99996" stroke-width="3" stroke-linecap="round" stroke-linejoin="round"/>
</symbol>
</svg>